<?xml version="1.0" standalone="no"?>
<!DOCTYPE svg PUBLIC "-//W3C//DTD SVG 20010904//EN"
 "http://www.w3.org/TR/2001/REC-SVG-20010904/DTD/svg10.dtd">
<svg version="1.0" xmlns="http://www.w3.org/2000/svg"
 width="512.000000pt" height="512.000000pt" viewBox="0 0 512.000000 512.000000"
 preserveAspectRatio="xMidYMid meet">

<g transform="translate(0.000000,512.000000) scale(0.100000,-0.100000)"
fill="#000000" stroke="none">
<path d="M1309 5091 c-16 -16 -29 -36 -29 -44 0 -7 -56 -1080 -125 -2383 -68
-1303 -126 -2404 -127 -2446 -3 -72 -1 -79 23 -104 26 -25 32 -26 474 -71 475
-47 480 -47 508 -1 8 13 122 689 268 1586 139 859 256 1562 259 1562 3 0 120
-703 259 -1562 146 -897 260 -1573 268 -1586 28 -46 33 -46 508 1 442 45 448
46 474 71 24 25 26 32 23 104 -1 42 -59 1143 -127 2446 -69 1303 -125 2376
-125 2383 0 8 -13 28 -29 44 l-29 29 -1222 0 -1222 0 -29 -29z m821 -226 l0
-85 -345 0 -345 0 0 69 c0 111 -36 101 351 101 l339 0 0 -85z m340 0 l0 -85
-85 0 -85 0 0 85 0 85 85 0 85 0 0 -85z m1204 63 c3 -13 6 -51 6 -85 l0 -63
-515 0 -515 0 0 85 0 85 509 0 509 0 6 -22z m-1994 -337 c0 -10 -20 -59 -44
-107 -46 -91 -115 -178 -187 -235 l-42 -33 7 140 c4 76 9 165 12 197 l6 57
124 0 c115 0 124 -1 124 -19z m453 -188 c5 -234 14 -282 77 -408 54 -111 124
-192 236 -275 21 -15 19 -27 -266 -1773 -158 -966 -289 -1759 -292 -1762 -6
-6 -676 59 -683 67 -5 5 181 3647 191 3724 5 39 9 44 71 80 83 49 191 148 249
229 51 72 117 208 134 278 l12 47 133 0 133 0 5 -207z m337 -135 l0 -342 -31
30 c-39 37 -92 133 -114 204 -17 57 -34 401 -22 434 5 13 23 16 87 16 l80 0 0
-342z m804 281 c53 -190 209 -393 379 -492 66 -39 66 -39 71 -90 17 -156 195
-3711 187 -3716 -14 -9 -672 -73 -679 -67 -3 4 -135 801 -293 1774 l-288 1767
-1 443 0 442 303 0 304 0 17 -61z m420 -6 c3 -38 9 -126 12 -197 l7 -129 -48
38 c-77 64 -133 135 -180 229 -66 131 -69 126 79 126 l124 0 6 -67z"/>
</g>
</svg>
