<?xml version="1.0" standalone="no"?>
<!DOCTYPE svg PUBLIC "-//W3C//DTD SVG 20010904//EN"
 "http://www.w3.org/TR/2001/REC-SVG-20010904/DTD/svg10.dtd">
<svg version="1.0" xmlns="http://www.w3.org/2000/svg"
 width="64.000000pt" height="64.000000pt" viewBox="0 0 64.000000 64.000000"
 preserveAspectRatio="xMidYMid meet">

<g transform="translate(0.000000,64.000000) scale(0.100000,-0.100000)"
fill="#000000" stroke="none">
<path d="M450 555 c0 -24 -3 -25 -58 -25 -80 0 -90 -13 -94 -115 l-3 -80 -57
-3 -58 -3 0 36 0 35 -65 0 -65 0 0 -80 0 -80 65 0 65 0 0 35 0 35 60 0 60 0 0
-83 c0 -104 10 -117 93 -117 54 0 57 -1 57 -25 0 -24 2 -25 70 -25 l70 0 0 60
0 60 -70 0 c-68 0 -70 -1 -70 -25 0 -23 -3 -25 -49 -25 -70 0 -81 14 -81 106
l0 74 64 0 c59 0 65 -2 68 -22 3 -21 9 -23 71 -26 l67 -3 0 61 0 60 -70 0
c-68 0 -70 -1 -70 -25 0 -25 -1 -26 -62 -23 l-63 3 -3 71 c-4 89 8 104 79 104
46 0 49 -2 49 -25 0 -24 2 -25 70 -25 l70 0 0 60 0 60 -70 0 c-68 0 -70 -1
-70 -25z m120 -35 c0 -29 -2 -30 -45 -30 -43 0 -45 1 -45 30 0 29 2 30 45 30
43 0 45 -1 45 -30z m-420 -200 l0 -60 -40 0 -40 0 0 60 0 60 40 0 40 0 0 -60z
m418 3 c3 -33 3 -33 -42 -33 -46 0 -46 0 -46 36 l0 35 43 -3 c39 -3 42 -5 45
-35z m2 -203 c0 -29 -2 -30 -45 -30 -43 0 -45 1 -45 30 0 29 2 30 45 30 43 0
45 -1 45 -30z"/>
</g>
</svg>
